<svg width="28" height="28" xmlns="http://www.w3.org/2000/svg">
 <g>
   <path d="m8.735294,20.768907c0,0.413655 -0.338445,0.752101 -0.752101,0.752101s-0.752101,-0.338445 -0.752101,-0.752101l0,-9.025209c0,-0.413655 0.338445,-0.752101 0.752101,-0.752101s0.752101,0.338445 0.752101,0.752101l0,9.025209zm3.008403,0c0,0.413655 -0.338445,0.752101 -0.752101,0.752101s-0.752101,-0.338445 -0.752101,-0.752101l0,-9.025209c0,-0.413655 0.338445,-0.752101 0.752101,-0.752101s0.752101,0.338445 0.752101,0.752101l0,9.025209zm3.008403,0c0,0.413655 -0.338445,0.752101 -0.752101,0.752101s-0.752101,-0.338445 -0.752101,-0.752101l0,-9.025209c0,-0.413655 0.338445,-0.752101 0.752101,-0.752101s0.752101,0.338445 0.752101,0.752101l0,9.025209zm6.768907,-15.794116l-0.752101,0l0,-1.504202c0,-1.660638 -1.347765,-3.008403 -3.008403,-3.008403l-13.537814,0c-1.660638,0 -3.008403,1.347765 -3.008403,3.008403l0,19.55462c0,2.490958 2.021647,4.512605 4.512605,4.512605l10.529411,0c2.490958,0 4.512605,-2.021647 4.512605,-4.512605l0.752101,0c2.903109,0 5.264705,-2.361596 5.264705,-5.264705l0,-7.521008c0,-2.903109 -2.361596,-5.264705 -5.264705,-5.264705zm-17.298318,-1.504202l13.537814,0l0,1.504202l-6.684672,0l-0.177496,0.499395c-0.246689,0.688924 -0.997286,1.098067 -1.680193,0.974723l-0.523462,-0.087244l-0.260227,0.46179c-0.401622,0.714496 -1.150714,1.159739 -1.955462,1.159739c-1.243975,0 -2.256302,-1.012328 -2.256302,-2.256302l0,-2.256302zm13.537814,19.55462c0,0.830319 -0.673882,1.504202 -1.504202,1.504202l-10.529411,0c-0.830319,0 -1.504202,-0.673882 -1.504202,-1.504202l0,-14.304957c0.63026,0.476832 1.407933,0.767143 2.256302,0.767143c1.179294,0 2.287891,-0.56558 2.991857,-1.504202c1.095059,0 2.080311,-0.588143 2.611294,-1.504202l5.678361,0l0,16.546217zm6.016806,-5.264705c0,1.243975 -1.012328,2.256302 -2.256302,2.256302l-2.256302,0l0,-12.033612l2.256302,0c1.243975,0 2.256302,1.012328 2.256302,2.256302l0,7.521008z"/>
 </g>
</svg>